<mxfile host="app.diagrams.net" agent="Mozilla/5.0 (Windows NT 10.0; Win64; x64) AppleWebKit/537.36 (KHTML, like Gecko) Chrome/133.0.0.0 Safari/537.36" version="26.1.0">
  <diagram name="Page-1" id="2YBvvXClWsGukQMizWep">
    <mxGraphModel grid="1" page="1" gridSize="10" guides="1" tooltips="1" connect="1" arrows="1" fold="1" pageScale="1" pageWidth="850" pageHeight="1100" math="0" shadow="0">
      <root>
        <mxCell id="0" />
        <mxCell id="1" parent="0" />
        <mxCell id="gCsTTr0_gdNnDzfN7Fox-3" value="cliente" style="shape=umlLifeline;perimeter=lifelinePerimeter;whiteSpace=wrap;html=1;container=1;dropTarget=0;collapsible=0;recursiveResize=0;outlineConnect=0;portConstraint=eastwest;newEdgeStyle={&quot;curved&quot;:0,&quot;rounded&quot;:0};participant=umlActor;labelPosition=center;verticalLabelPosition=top;align=center;verticalAlign=bottom;" vertex="1" parent="1">
          <mxGeometry x="80" y="130" width="20" height="660" as="geometry" />
        </mxCell>
        <mxCell id="gCsTTr0_gdNnDzfN7Fox-33" value="" style="html=1;points=[[0,0,0,0,5],[0,1,0,0,-5],[1,0,0,0,5],[1,1,0,0,-5]];perimeter=orthogonalPerimeter;outlineConnect=0;targetShapes=umlLifeline;portConstraint=eastwest;newEdgeStyle={&quot;curved&quot;:0,&quot;rounded&quot;:0};" vertex="1" parent="gCsTTr0_gdNnDzfN7Fox-3">
          <mxGeometry x="5" y="630" width="10" height="20" as="geometry" />
        </mxCell>
        <mxCell id="gCsTTr0_gdNnDzfN7Fox-4" value="Administrador de sistema" style="shape=umlLifeline;perimeter=lifelinePerimeter;whiteSpace=wrap;html=1;container=1;dropTarget=0;collapsible=0;recursiveResize=0;outlineConnect=0;portConstraint=eastwest;newEdgeStyle={&quot;curved&quot;:0,&quot;rounded&quot;:0};participant=umlActor;labelPosition=center;verticalLabelPosition=top;align=center;verticalAlign=bottom;" vertex="1" parent="1">
          <mxGeometry x="370" y="120" width="20" height="670" as="geometry" />
        </mxCell>
        <mxCell id="gCsTTr0_gdNnDzfN7Fox-5" value="Sistema" style="shape=umlLifeline;perimeter=lifelinePerimeter;whiteSpace=wrap;html=1;container=1;dropTarget=0;collapsible=0;recursiveResize=0;outlineConnect=0;portConstraint=eastwest;newEdgeStyle={&quot;curved&quot;:0,&quot;rounded&quot;:0};" vertex="1" parent="1">
          <mxGeometry x="590" y="125" width="100" height="670" as="geometry" />
        </mxCell>
        <mxCell id="gCsTTr0_gdNnDzfN7Fox-11" value="" style="html=1;points=[[0,0,0,0,5],[0,1,0,0,-5],[1,0,0,0,5],[1,1,0,0,-5]];perimeter=orthogonalPerimeter;outlineConnect=0;targetShapes=umlLifeline;portConstraint=eastwest;newEdgeStyle={&quot;curved&quot;:0,&quot;rounded&quot;:0};" vertex="1" parent="gCsTTr0_gdNnDzfN7Fox-5">
          <mxGeometry x="45" y="215" width="10" height="40" as="geometry" />
        </mxCell>
        <mxCell id="gCsTTr0_gdNnDzfN7Fox-12" value="Verifica disponibilidad&amp;nbsp;&lt;div&gt;de stock&lt;/div&gt;" style="html=1;align=left;spacingLeft=2;endArrow=block;rounded=0;edgeStyle=orthogonalEdgeStyle;curved=0;rounded=0;" edge="1" parent="gCsTTr0_gdNnDzfN7Fox-5" target="gCsTTr0_gdNnDzfN7Fox-11">
          <mxGeometry relative="1" as="geometry">
            <mxPoint x="55" y="195" as="sourcePoint" />
            <Array as="points">
              <mxPoint x="85" y="225" />
            </Array>
          </mxGeometry>
        </mxCell>
        <mxCell id="gCsTTr0_gdNnDzfN7Fox-22" value="" style="html=1;points=[[0,0,0,0,5],[0,1,0,0,-5],[1,0,0,0,5],[1,1,0,0,-5]];perimeter=orthogonalPerimeter;outlineConnect=0;targetShapes=umlLifeline;portConstraint=eastwest;newEdgeStyle={&quot;curved&quot;:0,&quot;rounded&quot;:0};" vertex="1" parent="gCsTTr0_gdNnDzfN7Fox-5">
          <mxGeometry x="45" y="575" width="10" height="40" as="geometry" />
        </mxCell>
        <mxCell id="gCsTTr0_gdNnDzfN7Fox-29" value="" style="html=1;points=[[0,0,0,0,5],[0,1,0,0,-5],[1,0,0,0,5],[1,1,0,0,-5]];perimeter=orthogonalPerimeter;outlineConnect=0;targetShapes=umlLifeline;portConstraint=eastwest;newEdgeStyle={&quot;curved&quot;:0,&quot;rounded&quot;:0};" vertex="1" parent="gCsTTr0_gdNnDzfN7Fox-5">
          <mxGeometry x="45" y="75" width="10" height="25" as="geometry" />
        </mxCell>
        <mxCell id="rUnMjIj-jcn70UuNAQK2-4" value="" style="html=1;points=[[0,0,0,0,5],[0,1,0,0,-5],[1,0,0,0,5],[1,1,0,0,-5]];perimeter=orthogonalPerimeter;outlineConnect=0;targetShapes=umlLifeline;portConstraint=eastwest;newEdgeStyle={&quot;curved&quot;:0,&quot;rounded&quot;:0};" vertex="1" parent="gCsTTr0_gdNnDzfN7Fox-5">
          <mxGeometry x="45" y="145" width="10" height="40" as="geometry" />
        </mxCell>
        <mxCell id="gCsTTr0_gdNnDzfN7Fox-6" value="Inicia sesión" style="html=1;verticalAlign=bottom;endArrow=block;curved=0;rounded=0;" edge="1" parent="1">
          <mxGeometry x="-0.8164" width="80" relative="1" as="geometry">
            <mxPoint x="89.5" y="200" as="sourcePoint" />
            <mxPoint x="639.5" y="200" as="targetPoint" />
            <mxPoint x="1" as="offset" />
          </mxGeometry>
        </mxCell>
        <mxCell id="gCsTTr0_gdNnDzfN7Fox-7" value="Autenticacion exitosa" style="html=1;verticalAlign=bottom;endArrow=open;dashed=1;endSize=8;curved=0;rounded=0;" edge="1" parent="1" target="gCsTTr0_gdNnDzfN7Fox-3">
          <mxGeometry x="0.7439" relative="1" as="geometry">
            <mxPoint x="640" y="230" as="sourcePoint" />
            <mxPoint x="560" y="230" as="targetPoint" />
            <mxPoint as="offset" />
          </mxGeometry>
        </mxCell>
        <mxCell id="gCsTTr0_gdNnDzfN7Fox-8" value="Navega por el catalogo" style="html=1;verticalAlign=bottom;endArrow=block;curved=0;rounded=0;" edge="1" parent="1">
          <mxGeometry x="-0.7436" width="80" relative="1" as="geometry">
            <mxPoint x="89.5" y="270" as="sourcePoint" />
            <mxPoint x="639.5" y="270" as="targetPoint" />
            <mxPoint as="offset" />
          </mxGeometry>
        </mxCell>
        <mxCell id="gCsTTr0_gdNnDzfN7Fox-9" value="Selecciona un producto" style="html=1;verticalAlign=bottom;endArrow=block;curved=0;rounded=0;" edge="1" parent="1">
          <mxGeometry x="-0.7452" width="80" relative="1" as="geometry">
            <mxPoint x="90" y="300" as="sourcePoint" />
            <mxPoint x="639.5" y="300" as="targetPoint" />
            <mxPoint as="offset" />
          </mxGeometry>
        </mxCell>
        <mxCell id="gCsTTr0_gdNnDzfN7Fox-13" value="alt" style="shape=umlFrame;whiteSpace=wrap;html=1;pointerEvents=0;" vertex="1" parent="1">
          <mxGeometry x="70" y="390" width="710" height="220" as="geometry" />
        </mxCell>
        <mxCell id="gCsTTr0_gdNnDzfN7Fox-14" value="Muestra producto sin stock" style="html=1;verticalAlign=bottom;endArrow=open;dashed=1;endSize=8;curved=0;rounded=0;" edge="1" parent="1" target="gCsTTr0_gdNnDzfN7Fox-3">
          <mxGeometry x="0.7075" relative="1" as="geometry">
            <mxPoint x="640" y="440" as="sourcePoint" />
            <mxPoint x="580" y="440" as="targetPoint" />
            <mxPoint as="offset" />
          </mxGeometry>
        </mxCell>
        <mxCell id="gCsTTr0_gdNnDzfN7Fox-15" value="Solicita notificación" style="html=1;verticalAlign=bottom;endArrow=block;curved=0;rounded=0;" edge="1" parent="1" target="gCsTTr0_gdNnDzfN7Fox-5">
          <mxGeometry x="-0.7816" width="80" relative="1" as="geometry">
            <mxPoint x="90" y="470" as="sourcePoint" />
            <mxPoint x="170" y="470" as="targetPoint" />
            <mxPoint as="offset" />
          </mxGeometry>
        </mxCell>
        <mxCell id="gCsTTr0_gdNnDzfN7Fox-16" value="Ingresa correo y confirma solicitud" style="html=1;verticalAlign=bottom;endArrow=block;curved=0;rounded=0;" edge="1" parent="1" target="gCsTTr0_gdNnDzfN7Fox-5">
          <mxGeometry x="-0.636" width="80" relative="1" as="geometry">
            <mxPoint x="90" y="500" as="sourcePoint" />
            <mxPoint x="170" y="500" as="targetPoint" />
            <mxPoint as="offset" />
          </mxGeometry>
        </mxCell>
        <mxCell id="gCsTTr0_gdNnDzfN7Fox-17" value="Confirmación de solicitud" style="html=1;verticalAlign=bottom;endArrow=open;dashed=1;endSize=8;curved=0;rounded=0;" edge="1" parent="1" target="gCsTTr0_gdNnDzfN7Fox-3">
          <mxGeometry x="0.7075" relative="1" as="geometry">
            <mxPoint x="640" y="530" as="sourcePoint" />
            <mxPoint x="560" y="530" as="targetPoint" />
            <mxPoint as="offset" />
          </mxGeometry>
        </mxCell>
        <mxCell id="gCsTTr0_gdNnDzfN7Fox-18" value="" style="html=1;points=[[0,0,0,0,5],[0,1,0,0,-5],[1,0,0,0,5],[1,1,0,0,-5]];perimeter=orthogonalPerimeter;outlineConnect=0;targetShapes=umlLifeline;portConstraint=eastwest;newEdgeStyle={&quot;curved&quot;:0,&quot;rounded&quot;:0};" vertex="1" parent="1">
          <mxGeometry x="635" y="560" width="10" height="40" as="geometry" />
        </mxCell>
        <mxCell id="gCsTTr0_gdNnDzfN7Fox-19" value="Registra solicitud&amp;nbsp;&lt;div&gt;e&lt;span style=&quot;background-color: light-dark(#ffffff, var(--ge-dark-color, #121212)); color: light-dark(rgb(0, 0, 0), rgb(255, 255, 255));&quot;&gt;n base de datos&lt;/span&gt;&lt;/div&gt;" style="html=1;align=left;spacingLeft=2;endArrow=block;rounded=0;edgeStyle=orthogonalEdgeStyle;curved=0;rounded=0;" edge="1" parent="1">
          <mxGeometry relative="1" as="geometry">
            <mxPoint x="640" y="540" as="sourcePoint" />
            <Array as="points">
              <mxPoint x="670" y="570" />
            </Array>
            <mxPoint x="645" y="570" as="targetPoint" />
          </mxGeometry>
        </mxCell>
        <mxCell id="gCsTTr0_gdNnDzfN7Fox-21" value="Actualiza stock de producto" style="html=1;verticalAlign=bottom;endArrow=block;curved=0;rounded=0;entryX=0.5;entryY=0.754;entryDx=0;entryDy=0;entryPerimeter=0;" edge="1" parent="1" target="gCsTTr0_gdNnDzfN7Fox-5" source="gCsTTr0_gdNnDzfN7Fox-31">
          <mxGeometry x="-0.3487" width="80" relative="1" as="geometry">
            <mxPoint x="375.5" y="630" as="sourcePoint" />
            <mxPoint x="635" y="630" as="targetPoint" />
            <mxPoint as="offset" />
          </mxGeometry>
        </mxCell>
        <mxCell id="gCsTTr0_gdNnDzfN7Fox-23" value="Verifica solicitudes pendientes" style="html=1;align=left;spacingLeft=2;endArrow=block;rounded=0;edgeStyle=orthogonalEdgeStyle;curved=0;rounded=0;" edge="1" parent="1">
          <mxGeometry relative="1" as="geometry">
            <mxPoint x="640" y="680" as="sourcePoint" />
            <Array as="points">
              <mxPoint x="670" y="710" />
            </Array>
            <mxPoint x="645" y="710" as="targetPoint" />
          </mxGeometry>
        </mxCell>
        <mxCell id="gCsTTr0_gdNnDzfN7Fox-24" value="Envía notificación de disponibilidad" style="html=1;verticalAlign=bottom;endArrow=block;curved=0;rounded=0;" edge="1" parent="1" source="gCsTTr0_gdNnDzfN7Fox-5">
          <mxGeometry x="0.6573" width="80" relative="1" as="geometry">
            <mxPoint x="635" y="760" as="sourcePoint" />
            <mxPoint x="90" y="760" as="targetPoint" />
            <mxPoint as="offset" />
          </mxGeometry>
        </mxCell>
        <mxCell id="gCsTTr0_gdNnDzfN7Fox-25" value="Cliente" style="shape=umlActor;verticalLabelPosition=top;verticalAlign=bottom;html=1;labelPosition=center;align=center;" vertex="1" parent="1">
          <mxGeometry x="75" y="810" width="30" height="60" as="geometry" />
        </mxCell>
        <mxCell id="gCsTTr0_gdNnDzfN7Fox-26" value="Administrador de sistema" style="shape=umlActor;verticalLabelPosition=top;verticalAlign=bottom;html=1;labelPosition=center;align=center;" vertex="1" parent="1">
          <mxGeometry x="365" y="810" width="30" height="60" as="geometry" />
        </mxCell>
        <mxCell id="gCsTTr0_gdNnDzfN7Fox-27" value="Sistema" style="html=1;whiteSpace=wrap;" vertex="1" parent="1">
          <mxGeometry x="585" y="795" width="110" height="50" as="geometry" />
        </mxCell>
        <mxCell id="gCsTTr0_gdNnDzfN7Fox-28" value="[Producto sin stock]" style="text;align=center;fontStyle=1;verticalAlign=middle;spacingLeft=3;spacingRight=3;strokeColor=none;rotatable=0;points=[[0,0.5],[1,0.5]];portConstraint=eastwest;html=1;" vertex="1" parent="1">
          <mxGeometry x="150" y="390" width="80" height="26" as="geometry" />
        </mxCell>
        <mxCell id="gCsTTr0_gdNnDzfN7Fox-32" value="" style="html=1;points=[[0,0,0,0,5],[0,1,0,0,-5],[1,0,0,0,5],[1,1,0,0,-5]];perimeter=orthogonalPerimeter;outlineConnect=0;targetShapes=umlLifeline;portConstraint=eastwest;newEdgeStyle={&quot;curved&quot;:0,&quot;rounded&quot;:0};" vertex="1" parent="1">
          <mxGeometry x="635" y="470" width="10" height="20" as="geometry" />
        </mxCell>
        <mxCell id="rUnMjIj-jcn70UuNAQK2-1" value="" style="html=1;points=[[0,0,0,0,5],[0,1,0,0,-5],[1,0,0,0,5],[1,1,0,0,-5]];perimeter=orthogonalPerimeter;outlineConnect=0;targetShapes=umlLifeline;portConstraint=eastwest;newEdgeStyle={&quot;curved&quot;:0,&quot;rounded&quot;:0};" vertex="1" parent="1">
          <mxGeometry x="635" y="500" width="10" height="20" as="geometry" />
        </mxCell>
        <mxCell id="rUnMjIj-jcn70UuNAQK2-2" value="" style="html=1;verticalAlign=bottom;endArrow=block;curved=0;rounded=0;entryX=0;entryY=0;entryDx=0;entryDy=5;entryPerimeter=0;" edge="1" parent="1" target="gCsTTr0_gdNnDzfN7Fox-31">
          <mxGeometry x="-0.3487" width="80" relative="1" as="geometry">
            <mxPoint x="375.5" y="630" as="sourcePoint" />
            <mxPoint x="640" y="630" as="targetPoint" />
            <mxPoint as="offset" />
          </mxGeometry>
        </mxCell>
        <mxCell id="gCsTTr0_gdNnDzfN7Fox-31" value="" style="html=1;points=[[0,0,0,0,5],[0,1,0,0,-5],[1,0,0,0,5],[1,1,0,0,-5]];perimeter=orthogonalPerimeter;outlineConnect=0;targetShapes=umlLifeline;portConstraint=eastwest;newEdgeStyle={&quot;curved&quot;:0,&quot;rounded&quot;:0};" vertex="1" parent="1">
          <mxGeometry x="635" y="630" width="10" height="30" as="geometry" />
        </mxCell>
      </root>
    </mxGraphModel>
  </diagram>
</mxfile>
